<?xml version="1.0" standalone="no"?>
<!DOCTYPE svg PUBLIC "-//W3C//DTD SVG 20010904//EN"
 "http://www.w3.org/TR/2001/REC-SVG-20010904/DTD/svg10.dtd">
<svg version="1.0" xmlns="http://www.w3.org/2000/svg"
 width="500.000000pt" height="500.000000pt" viewBox="0 0 500.000000 500.000000"
 preserveAspectRatio="xMidYMid meet">
<metadata>
Created by potrace 1.16, written by Peter Selinger 2001-2019
</metadata>
<g transform="translate(0.000000,500.000000) scale(0.100000,-0.100000)"
fill="#000000" stroke="none">
<path d="M2375 4233 c-314 -43 -583 -239 -725 -526 -78 -159 -94 -230 -94
-427 0 -151 3 -173 28 -255 101 -334 337 -568 673 -667 68 -20 100 -23 248
-23 148 0 180 3 249 23 334 97 582 344 678 678 20 68 23 102 23 249 0 148 -3
180 -23 248 -128 431 -501 713 -936 706 -50 -1 -104 -4 -121 -6z m395 -68
c426 -137 688 -527 649 -966 -10 -114 -32 -196 -79 -295 -121 -259 -337 -440
-609 -511 -130 -33 -306 -35 -435 -4 -267 64 -500 252 -617 496 -69 145 -84
218 -84 400 0 136 3 171 23 238 84 292 290 518 567 623 118 44 185 54 350 50
130 -3 161 -7 235 -31z"/>
<path d="M2095 3735 c-95 -39 -156 -119 -126 -164 8 -12 16 -9 46 17 45 40
121 79 205 106 73 24 84 35 49 53 -38 20 -109 15 -174 -12z"/>
<path d="M2757 3725 c-21 -29 -19 -30 56 -39 64 -8 146 -48 205 -101 l48 -44
13 35 c11 31 10 37 -9 62 -50 63 -159 112 -249 112 -37 -1 -49 -5 -64 -25z"/>
<path d="M1803 3404 c-85 -50 -124 -171 -79 -239 l20 -30 10 42 c6 23 14 44
18 48 3 3 46 -35 95 -86 232 -242 441 -349 677 -349 223 0 363 68 579 279 79
77 100 93 108 81 5 -8 7 -32 4 -52 -6 -46 7 -56 34 -22 47 60 52 154 12 233
-36 69 -94 91 -142 52 l-23 -19 38 -42 38 -42 -68 -70 c-190 -192 -417 -266
-689 -225 -207 32 -367 111 -512 252 -51 50 -93 95 -93 102 0 7 25 27 55 45
59 35 68 52 33 62 -43 11 -73 6 -115 -20z"/>
<path d="M3850 2373 c-47 -8 -87 -17 -89 -19 -2 -1 9 -75 24 -162 16 -88 25
-167 22 -175 -6 -17 -104 -34 -117 -21 -5 5 -21 82 -36 172 -22 127 -31 162
-44 162 -8 0 -54 -7 -101 -16 l-86 -16 28 -160 c35 -198 33 -190 75 -227 41
-37 59 -38 199 -11 55 10 103 16 107 13 5 -2 8 -19 8 -38 0 -38 6 -36 -200
-70 -52 -9 -96 -18 -98 -19 -1 -2 0 -22 4 -44 6 -38 9 -41 33 -36 14 3 114 20
221 39 276 48 264 25 200 394 -22 126 -40 234 -40 240 0 13 -1 13 -110 -6z"/>
<path d="M3030 2231 c-187 -33 -205 -38 -203 -56 3 -47 96 -571 102 -577 3 -3
48 1 99 10 104 18 100 13 81 116 -6 32 -8 60 -5 63 3 3 54 14 113 24 172 31
193 45 193 136 0 70 -35 246 -54 276 -19 29 -57 47 -94 46 -15 -1 -119 -18
-232 -38z m162 -171 c25 -141 24 -157 -12 -164 -16 -3 -43 -9 -60 -12 -25 -5
-31 -2 -39 18 -13 31 -44 228 -38 235 10 9 71 21 102 20 29 -2 29 -3 47 -97z"/>
<path d="M2446 2129 c-120 -21 -220 -40 -222 -42 -4 -3 97 -590 102 -596 4 -4
118 14 173 26 25 6 25 7 6 129 l-7 40 104 18 c135 23 164 32 188 63 25 32 26
82 4 212 -34 199 -43 203 -348 150z m122 -81 c13 -17 46 -222 39 -241 -6 -15
-112 -36 -123 -25 -12 12 -46 240 -37 249 8 8 44 17 104 28 4 1 11 -5 17 -11z"/>
<path d="M1425 2114 c-38 -7 -75 -16 -81 -18 -8 -3 -6 -35 9 -116 11 -61 17
-113 15 -116 -3 -2 -37 -11 -76 -18 -53 -10 -72 -11 -75 -2 -3 7 -13 60 -22
120 -17 100 -20 107 -39 102 -12 -2 -58 -10 -103 -17 -46 -7 -83 -17 -83 -23
0 -20 99 -579 103 -583 6 -5 190 28 199 36 4 3 -2 53 -13 111 -28 155 -31 145
53 158 40 6 74 9 77 7 2 -3 12 -55 23 -117 10 -62 20 -118 23 -124 2 -8 30 -7
100 6 52 10 98 20 101 23 4 4 -69 452 -92 560 -6 31 -14 32 -119 11z"/>
<path d="M1840 2026 l-175 -32 1 -37 c1 -21 4 -40 7 -43 3 -3 66 4 139 17 124
21 168 22 168 2 -1 -25 -28 -36 -136 -54 -129 -22 -160 -36 -170 -75 -10 -38
3 -149 20 -182 32 -62 53 -66 210 -37 66 12 105 24 118 37 17 17 21 18 31 4
11 -13 21 -13 95 1 61 11 82 19 82 31 0 46 -54 311 -70 342 -21 42 -56 60
-108 59 -20 -1 -116 -16 -212 -33z m164 -277 l1 -54 -50 -12 c-59 -15 -70 -8
-80 53 -4 28 -2 44 7 51 18 15 101 31 112 22 4 -4 9 -31 10 -60z"/>
<path d="M3479 1566 c-100 -18 -187 -39 -202 -49 -40 -26 -42 -67 -14 -221 27
-148 42 -182 85 -193 25 -6 398 50 448 68 18 6 20 13 15 46 -8 44 4 43 -174
13 -138 -24 -149 -22 -162 27 -3 14 -5 27 -3 28 2 2 73 15 158 30 85 15 160
28 166 30 13 4 -8 147 -28 198 -12 31 -55 58 -90 56 -13 -1 -102 -15 -199 -33z"/>
<path d="M2905 1464 c-132 -24 -241 -43 -242 -44 -7 -1 -2 -57 6 -69 8 -12 23
-12 107 2 54 9 100 14 102 12 2 -2 -34 -88 -81 -192 -46 -103 -83 -189 -82
-191 1 -1 118 18 259 43 141 25 259 45 263 45 6 0 -2 79 -9 86 -2 2 -53 -5
-114 -15 -60 -11 -110 -18 -111 -17 -1 1 34 82 77 181 77 175 88 206 73 204
-5 -1 -116 -21 -248 -45z"/>
<path d="M1610 1403 c-107 -20 -196 -36 -197 -37 -2 -2 96 -567 102 -582 5
-15 438 59 482 82 18 9 40 33 49 53 17 35 17 41 -15 229 -17 106 -39 208 -48
226 -36 77 -85 80 -373 29z m168 -86 c6 -6 25 -93 42 -192 29 -162 30 -180 16
-191 -21 -15 -117 -28 -126 -17 -7 8 -59 304 -63 358 -2 28 1 30 53 41 30 6
58 12 61 13 4 0 11 -5 17 -12z"/>
<path d="M2270 1356 l-175 -31 3 -35 c2 -19 7 -38 11 -43 4 -4 69 3 143 16 75
13 142 21 148 17 7 -4 10 -16 8 -26 -2 -16 -25 -23 -131 -44 -115 -22 -132
-28 -154 -54 -23 -27 -25 -35 -19 -88 9 -73 23 -117 49 -145 25 -28 63 -29
191 -7 70 12 96 21 113 40 21 23 22 23 28 3 4 -11 12 -18 19 -16 7 3 47 11 89
17 42 7 77 16 77 19 0 8 -48 277 -56 314 -3 16 -19 44 -36 63 -27 31 -35 34
-82 33 -28 -1 -130 -15 -226 -33z m173 -265 c5 -32 5 -57 0 -62 -5 -5 -33 -12
-61 -16 -49 -5 -52 -4 -62 21 -13 35 -13 83 0 91 13 8 92 23 105 21 6 -2 14
-26 18 -55z"/>
</g>
</svg>
